<?xml version="1.0" encoding="UTF-8" standalone="no"?>
<!DOCTYPE svg PUBLIC "-//W3C//DTD SVG 1.1//EN" "http://www.w3.org/Graphics/SVG/1.1/DTD/svg11.dtd">
<svg width="100%" height="100%" viewBox="0 0 1436 348" version="1.1" xmlns="http://www.w3.org/2000/svg" xmlns:xlink="http://www.w3.org/1999/xlink" xml:space="preserve" xmlns:serif="http://www.serif.com/" style="fill-rule:evenodd;clip-rule:evenodd;stroke-linejoin:round;stroke-miterlimit:2;">
    <g transform="matrix(1,0,0,1,-2255.012327,-437.270966)">
        <g transform="matrix(1.73763,0,0,1.73763,1395.121723,-425.801126)">
            <g transform="matrix(0.900403,0,0,1,49.920485,0)">
                <g transform="matrix(203.821716,0,0,203.821716,1415.819801,651.314549)">
                </g>
                <text x="501.225px" y="651.315px" style="font-family:'InstrumentSerif-Regular', 'Instrument Serif';font-size:203.822px;fill:rgb(238,237,232);">y<tspan x="583.412px 659.845px 757.068px 856.941px 942.342px 1011.234px 1068.1px 1106.826px 1179.998px 1228.915px 1325.527px " y="651.315px 651.315px 651.315px 651.315px 651.315px 651.315px 651.315px 651.315px 651.315px 651.315px 651.315px ">edhart club</tspan></text>
            </g>
            <path d="M698.359,547.733C698.372,547.699 698.385,547.66 698.393,547.628C698.438,547.441 698.455,547.217 698.455,546.958L698.455,520.869C698.455,518.762 698.245,517.285 697.666,516.466C697.166,515.759 696.244,515.439 694.942,515.335L690.099,514.715L690.057,514.706C689.071,514.507 688.349,514.076 687.856,513.479C687.359,512.878 687.077,512.087 687.077,511.085C687.077,510.083 687.359,509.293 687.856,508.691C688.348,508.095 689.068,507.665 690.051,507.465C693.86,506.672 696.927,505.752 699.249,504.695C701.561,503.641 703.49,502.59 705.032,501.536C707.273,499.981 708.993,499.288 710.115,499.288C712.045,499.288 713.332,500.63 713.332,503.748L713.332,631.951C713.332,634.584 713.598,636.563 714.19,637.88C714.601,638.792 715.166,639.313 715.987,639.313C717.244,639.313 718.285,638.233 719.349,636.355C720.628,634.094 721.212,630.243 721.212,624.818C721.212,623.075 721.697,621.889 722.462,621.192C723.049,620.658 723.819,620.358 724.797,620.358C726.861,620.358 728.198,621.774 728.198,625.022C728.198,635.262 726.554,642.648 723.396,647.207C720.064,652.019 716.216,654.348 711.95,654.348C707.963,654.348 704.951,652.834 702.889,649.857C700.96,647.071 699.665,643.752 699.022,639.894L699.017,639.862L699.013,639.831C698.99,639.623 698.954,639.443 698.895,639.293C698.871,639.231 698.868,639.163 698.809,639.158C698.69,639.147 698.596,639.235 698.489,639.337C698.298,639.516 698.122,639.768 697.946,640.081L697.928,640.113L697.908,640.144C694.368,645.621 691.121,649.323 688.213,651.289C685.214,653.316 681.568,654.348 677.264,654.348C671.57,654.348 666.483,652.172 662.018,647.788C657.674,643.522 654.288,637.588 651.896,629.967C649.539,622.458 648.354,613.744 648.354,603.824C648.354,592.252 649.974,582.094 653.199,573.346C656.459,564.505 660.985,557.587 666.751,552.575C672.61,547.483 679.236,544.944 686.624,544.944C688.415,544.944 690.205,545.121 691.996,545.476C693.817,545.837 695.573,546.451 697.282,547.327L697.3,547.336C697.684,547.55 698.175,547.687 698.359,547.733ZM677.264,653.149C681.302,653.149 684.728,652.198 687.542,650.295C690.356,648.393 693.475,644.792 696.901,639.493C697.513,638.406 698.186,637.896 698.92,637.964C699.654,638.032 700.082,638.61 700.205,639.697C700.816,643.366 702.04,646.525 703.875,649.174C705.71,651.824 708.402,653.149 711.95,653.149C715.865,653.149 719.352,650.941 722.411,646.525C725.469,642.109 726.999,634.941 726.999,625.022C726.999,622.712 726.265,621.557 724.797,621.557C723.206,621.557 722.411,622.644 722.411,624.818C722.411,630.525 721.738,634.567 720.392,636.945C719.046,639.323 717.578,640.512 715.987,640.512C713.418,640.512 712.134,637.658 712.134,631.951L712.134,503.748C712.134,501.574 711.461,500.486 710.115,500.486C709.136,500.486 707.668,501.166 705.71,502.525C704.12,503.612 702.132,504.699 699.746,505.786C697.36,506.873 694.21,507.824 690.294,508.639C688.949,508.911 688.276,509.726 688.276,511.085C688.276,512.444 688.949,513.259 690.294,513.531L695.066,514.143C696.779,514.278 697.972,514.822 698.645,515.773C699.318,516.724 699.654,518.423 699.654,520.869L699.654,546.958C699.654,548.996 698.675,549.472 696.718,548.385C695.127,547.569 693.475,546.992 691.763,546.652C690.05,546.312 688.337,546.143 686.624,546.143C679.528,546.143 673.166,548.588 667.538,553.48C661.91,558.372 657.505,565.132 654.324,573.76C651.143,582.389 649.553,592.41 649.553,603.824C649.553,613.608 650.715,622.202 653.04,629.608C655.364,637.013 658.637,642.788 662.858,646.932C667.079,651.077 671.881,653.149 677.264,653.149ZM681.302,643.773C675.674,643.773 671.239,640.138 667.997,632.869C664.754,625.599 663.133,614.966 663.133,600.971C663.133,585.616 665.244,573.489 669.465,564.588C673.686,555.688 679.222,551.238 686.073,551.238C690.111,551.238 693.384,553.005 695.892,556.537C698.4,560.07 699.654,564.894 699.654,571.009L699.654,616.869C699.654,621.896 698.767,626.448 696.993,630.525C695.219,634.601 692.955,637.828 690.203,640.206C687.45,642.584 684.483,643.773 681.302,643.773ZM681.302,642.574C684.206,642.574 686.906,641.47 689.419,639.299C692.048,637.028 694.199,633.939 695.894,630.046C697.605,626.113 698.455,621.72 698.455,616.869L698.455,571.009C698.455,565.192 697.3,560.593 694.914,557.232C692.653,554.047 689.713,552.437 686.073,552.437C679.631,552.437 674.517,556.734 670.548,565.102C666.387,573.876 664.332,585.835 664.332,600.971C664.332,614.75 665.899,625.223 669.092,632.38C672.089,639.102 676.098,642.574 681.302,642.574ZM924.948,560.776C924.97,560.761 925.006,560.736 925.028,560.716C925.078,560.672 925.126,560.619 925.174,560.56C925.321,560.38 925.46,560.15 925.604,559.862L925.61,559.851C930.893,549.833 937.365,544.944 944.839,544.944C949.32,544.944 952.624,546.464 954.796,549.405C956.911,552.267 957.967,555.46 957.967,558.983C957.967,561.853 957.293,564.186 956.001,565.998C954.624,567.929 952.509,568.947 949.611,568.947C947.237,568.947 945.52,568.257 944.407,567.021C943.398,565.901 942.589,564.596 941.984,563.102C941.473,561.839 940.878,560.733 940.196,559.786C939.663,559.046 938.742,558.756 937.498,558.756C935.619,558.756 933.925,560.113 932.254,562.606C930.358,565.436 928.799,569.225 927.555,573.963C926.293,578.765 925.667,584.235 925.667,590.372L925.667,637.658C925.667,640.201 925.957,642.03 926.666,643.12C927.314,644.117 928.739,644.601 930.844,644.824L935.855,645.442L935.9,645.451C936.871,645.648 937.582,646.049 938.068,646.589C938.59,647.168 938.881,647.921 938.881,648.869C938.881,650.092 938.478,650.988 937.79,651.599C937.15,652.168 936.209,652.513 934.929,652.513L903.914,652.513C902.353,652.513 901.298,652.03 900.674,651.267C900.222,650.716 899.962,649.991 899.962,649.073C899.962,647.326 900.977,646.047 903.249,645.465L903.288,645.455L905.524,645.041C907.68,644.583 909.139,643.963 909.808,642.991C910.512,641.97 910.79,640.183 910.79,637.658L910.79,569.174C910.79,567.093 910.598,565.659 910.026,564.907C909.503,564.221 908.543,563.844 907.213,563.632L903.407,563.028C902.303,562.927 901.491,562.57 900.936,562.048C900.315,561.464 899.962,560.657 899.962,559.595C899.962,558.071 901.109,556.75 903.869,556.176L903.886,556.173C907.456,555.533 910.201,554.535 912.101,553.128C914.072,551.669 916.131,549.879 918.276,547.763C919.69,546.2 920.955,545.555 921.899,545.555C922.695,545.555 923.321,545.821 923.798,546.292C924.365,546.852 924.749,547.8 924.749,549.2L924.749,560.206C924.749,560.482 924.751,560.704 924.948,560.776ZM926.67,560.41C926.059,561.633 925.386,562.143 924.652,561.939C923.918,561.735 923.55,561.157 923.55,560.206L923.55,549.2C923.55,547.569 923,546.754 921.899,546.754C921.165,546.754 920.247,547.365 919.146,548.588C916.944,550.763 914.833,552.597 912.814,554.092C910.796,555.586 907.89,556.673 904.097,557.353C902.14,557.76 901.161,558.508 901.161,559.595C901.161,560.954 901.956,561.701 903.547,561.837L907.401,562.448C909.113,562.72 910.306,563.298 910.979,564.181C911.652,565.064 911.989,566.729 911.989,569.174L911.989,637.658C911.989,640.512 911.591,642.516 910.796,643.671C910,644.826 908.318,645.675 905.749,646.219L903.547,646.627C901.956,647.034 901.161,647.85 901.161,649.073C901.161,650.567 902.078,651.315 903.914,651.315L934.929,651.315C936.764,651.315 937.682,650.499 937.682,648.869C937.682,647.646 937.009,646.898 935.663,646.627L930.708,646.015C928.139,645.743 926.456,644.996 925.661,643.773C924.866,642.55 924.468,640.512 924.468,637.658L924.468,590.372C924.468,584.121 925.11,578.55 926.395,573.658C927.68,568.767 929.301,564.86 931.258,561.939C933.216,559.017 935.296,557.557 937.498,557.557C939.211,557.557 940.434,558.066 941.169,559.085C941.903,560.104 942.545,561.293 943.096,562.652C943.646,564.011 944.38,565.2 945.298,566.219C946.215,567.238 947.653,567.748 949.611,567.748C952.058,567.748 953.862,566.932 955.024,565.302C956.187,563.671 956.768,561.565 956.768,558.983C956.768,555.722 955.789,552.767 953.832,550.117C951.874,547.467 948.876,546.143 944.839,546.143C937.743,546.143 931.687,550.898 926.67,560.41ZM516.457,694.297C512.756,694.297 509.813,692.88 507.62,690.064C505.495,687.336 504.43,684.204 504.43,680.665C504.43,677.793 505.197,675.381 506.694,673.416C508.275,671.342 510.424,670.294 513.154,670.294C515.538,670.294 517.223,670.959 518.266,672.117C519.242,673.202 519.94,674.442 520.358,675.836C520.716,677.026 521.072,678.085 521.43,679.01C521.607,679.47 521.981,679.67 522.513,679.67C522.917,679.67 523.291,679.486 523.658,679.17C524.176,678.724 524.655,678.046 525.121,677.154C526.204,675.084 527.696,670.705 529.622,664.021L529.623,664.014C530.821,660.023 531.574,656.565 531.873,653.638C532.17,650.734 532.109,647.631 531.693,644.331C531.271,640.987 530.335,636.908 528.887,632.083L508.877,561.337L508.874,561.326C508.083,558.315 507.371,556.35 506.637,555.472C505.983,554.69 504.932,554.169 503.525,553.833L500.762,553.22L500.744,553.215C498.499,552.639 497.457,551.322 497.457,549.404C497.457,548.534 497.71,547.85 498.149,547.328C498.742,546.622 499.742,546.167 501.225,546.167L531.506,546.167C532.988,546.167 533.989,546.622 534.582,547.328C535.02,547.85 535.274,548.534 535.274,549.404C535.274,550.492 534.949,551.346 534.37,551.989C533.815,552.606 533.001,553.046 531.873,553.238L528.918,553.649C527.572,553.835 526.47,554.101 525.615,554.459C524.937,554.743 524.432,555.065 524.143,555.485C523.862,555.894 523.77,556.474 523.781,557.208C523.795,558.159 524.007,559.319 524.402,560.7L540.555,620.429C540.662,620.825 540.784,621.147 540.941,621.385C541.005,621.482 541.046,621.581 541.141,621.581C541.236,621.581 541.276,621.482 541.341,621.385C541.498,621.147 541.62,620.825 541.728,620.424L557.327,564.375C558.236,560.966 558.54,558.413 558.142,556.708C557.802,555.25 556.301,554.481 553.85,554.046L549.952,553.221L549.927,553.215C547.682,552.639 546.64,551.322 546.64,549.404C546.64,548.534 546.894,547.85 547.333,547.328C547.926,546.622 548.926,546.167 550.409,546.167L573.716,546.167C574.931,546.167 575.824,546.493 576.431,547.023C577.095,547.602 577.484,548.449 577.484,549.608C577.484,551.482 576.525,552.835 574.499,553.585L572.848,554.197C571.237,554.793 569.902,555.874 568.829,557.424C567.651,559.124 566.433,562.074 565.138,566.257L537.797,661.02C535.083,670.61 532.642,677.733 530.483,682.392C528.225,687.264 526.018,690.422 523.954,691.927C521.792,693.502 519.294,694.297 516.457,694.297ZM516.457,693.098C519.026,693.098 521.29,692.385 523.247,690.958C525.205,689.531 527.254,686.508 529.395,681.888C531.537,677.268 533.953,670.202 536.645,660.69L563.989,565.913C565.335,561.565 566.62,558.508 567.843,556.741C569.067,554.975 570.596,553.752 572.431,553.072L574.083,552.461C575.551,551.917 576.285,550.966 576.285,549.608C576.285,548.113 575.429,547.365 573.716,547.365L550.409,547.365C548.696,547.365 547.839,548.045 547.839,549.404C547.839,550.763 548.635,551.646 550.225,552.053L554.079,552.869C557.138,553.412 558.881,554.601 559.309,556.436C559.738,558.27 559.462,561.022 558.484,564.69L542.884,620.741C542.517,622.1 541.936,622.78 541.141,622.78C540.346,622.78 539.764,622.1 539.397,620.741L523.247,561.022C522.391,558.032 522.36,555.96 523.156,554.805C523.951,553.65 525.817,552.869 528.753,552.461L531.689,552.053C533.28,551.782 534.075,550.898 534.075,549.404C534.075,548.045 533.219,547.365 531.506,547.365L501.225,547.365C499.512,547.365 498.656,548.045 498.656,549.404C498.656,550.763 499.451,551.646 501.041,552.053L503.794,552.665C505.507,553.072 506.761,553.752 507.556,554.703C508.352,555.654 509.177,557.76 510.034,561.022L530.038,631.748C531.506,636.639 532.454,640.784 532.882,644.181C533.311,647.578 533.372,650.771 533.066,653.76C532.76,656.75 531.995,660.283 530.772,664.359C528.814,671.153 527.285,675.603 526.184,677.709C525.083,679.816 523.859,680.869 522.513,680.869C521.412,680.869 520.678,680.393 520.311,679.442C519.944,678.491 519.577,677.404 519.21,676.181C518.843,674.958 518.231,673.871 517.375,672.92C516.518,671.968 515.111,671.493 513.154,671.493C510.829,671.493 508.994,672.376 507.648,674.143C506.302,675.909 505.629,678.083 505.629,680.665C505.629,683.926 506.608,686.813 508.566,689.327C510.523,691.841 513.154,693.098 516.457,693.098ZM610.462,654.348C604.287,654.348 598.75,652.075 593.861,647.502C589.087,643.038 585.27,636.735 582.444,628.573C579.652,620.511 578.248,611.175 578.248,600.563C578.248,589.68 579.682,580.106 582.535,571.841C585.421,563.479 589.388,556.939 594.407,552.201C599.545,547.35 605.269,544.944 611.564,544.944C619.185,544.944 625.368,548.397 630.082,555.355C634.644,562.086 636.987,573.002 636.987,588.13C636.987,591.243 636.249,593.392 634.975,594.637C634.028,595.562 632.778,596.055 631.2,596.055L596.331,596.055C595.681,596.055 595.15,596.187 594.76,596.519C594.09,597.089 593.86,598.119 593.86,599.544C593.86,613.696 595.684,624.317 599.411,631.393C602.945,638.103 607.376,641.555 612.848,641.555C617.115,641.555 620.595,639.869 623.291,636.502C626.145,632.935 628.427,626.91 630.215,618.436L630.22,618.417C630.752,616.249 631.995,615.262 633.77,615.262C635.817,615.262 637.121,616.909 636.608,620.714L636.605,620.729C634.599,633.12 631.346,641.767 626.958,646.709C622.432,651.809 616.93,654.348 610.462,654.348ZM610.462,653.149C616.58,653.149 621.78,650.737 626.062,645.913C630.344,641.089 633.464,632.631 635.421,620.537C635.788,617.82 635.238,616.461 633.77,616.461C632.546,616.461 631.751,617.208 631.384,618.703C629.549,627.399 627.163,633.582 624.227,637.251C621.29,640.92 617.497,642.754 612.848,642.754C606.976,642.754 602.143,639.153 598.35,631.951C594.557,624.75 592.661,613.947 592.661,599.544C592.661,596.419 593.884,594.856 596.331,594.856L631.2,594.856C634.259,594.856 635.788,592.614 635.788,588.13C635.788,573.319 633.556,562.618 629.09,556.028C624.624,549.438 618.782,546.143 611.564,546.143C605.569,546.143 600.124,548.453 595.23,553.072C590.336,557.692 586.482,564.079 583.668,572.232C580.854,580.385 579.447,589.828 579.447,600.563C579.447,611.026 580.824,620.232 583.577,628.181C586.329,636.13 590.03,642.278 594.68,646.627C599.329,650.975 604.59,653.149 610.462,653.149ZM595.781,589.76C593.701,589.76 592.783,588.673 593.028,586.499C594.007,575.221 596.117,566.525 599.359,560.41C602.602,554.295 606.609,551.238 611.38,551.238C615.295,551.238 618.232,553.752 620.189,558.779C622.147,563.807 623.125,570.737 623.125,579.569C623.125,586.363 620.189,589.76 614.316,589.76L595.781,589.76ZM595.781,588.561L614.316,588.561C616.84,588.561 618.754,587.888 620.016,586.429C621.33,584.908 621.927,582.61 621.927,579.569C621.927,570.923 620.988,564.136 619.072,559.215C617.341,554.77 614.841,552.437 611.38,552.437C606.996,552.437 603.398,555.354 600.419,560.972C597.234,566.978 595.184,575.525 594.221,586.618L594.219,586.633C594.143,587.31 594.163,587.833 594.449,588.172C594.715,588.487 595.177,588.561 595.781,588.561ZM736.542,652.513C735.418,652.513 734.597,652.166 734.035,651.594C733.48,651.029 733.141,650.203 733.141,649.073C733.141,648.071 733.423,647.28 733.92,646.679C734.413,646.081 735.135,645.651 736.146,645.446L738.74,645.035C740.867,644.697 742.311,644.132 742.969,643.12C743.678,642.03 743.968,640.201 743.968,637.658L743.968,520.869C743.968,518.788 743.777,517.353 743.204,516.602C742.682,515.916 741.722,515.538 740.391,515.327L736.513,514.711L736.488,514.706C735.502,514.507 734.78,514.076 734.287,513.479C733.79,512.878 733.508,512.087 733.508,511.085C733.508,510.083 733.79,509.293 734.287,508.691C734.776,508.098 735.491,507.67 736.468,507.468C739.793,506.676 742.585,505.755 744.843,504.7C747.099,503.645 749.001,502.592 750.545,501.536C752.787,499.981 754.507,499.288 755.628,499.288C757.558,499.288 758.846,500.63 758.846,503.748L758.846,557.76C758.846,558.086 758.873,558.36 758.951,558.577C758.979,558.654 758.999,558.726 759.069,558.745C759.189,558.779 759.316,558.714 759.467,558.642C759.829,558.468 760.218,558.156 760.644,557.738C765.411,552.861 769.624,549.53 773.262,547.719C776.98,545.868 780.89,544.944 784.992,544.944C791.147,544.944 795.985,547.249 799.521,551.83C802.956,556.28 804.726,562.799 804.726,571.416L804.726,637.658C804.726,640.183 805.004,641.97 805.708,642.991C806.369,643.951 807.816,644.491 809.951,644.83L814.013,645.446L814.042,645.451C815.028,645.651 815.75,646.081 816.243,646.679C816.739,647.28 817.022,648.071 817.022,649.073C817.022,650.203 816.683,651.029 816.128,651.594C815.566,652.166 814.745,652.513 813.621,652.513L782.789,652.513C781.574,652.513 780.682,652.188 780.074,651.657C779.41,651.078 779.021,650.231 779.021,649.073C779.021,648.071 779.304,647.28 779.8,646.679C780.293,646.081 781.015,645.651 782.026,645.446L784.62,645.035C786.747,644.697 788.191,644.132 788.85,643.12C789.559,642.03 789.849,640.201 789.849,637.658L789.849,573.658C789.849,567.367 788.894,562.918 786.813,560.35C784.833,557.907 782.014,556.717 778.385,556.717C774.748,556.717 771.482,557.888 768.585,560.223C765.606,562.622 763.248,565.805 761.496,569.762C759.726,573.76 758.846,578.184 758.846,583.034L758.846,637.658C758.846,640.201 759.136,642.03 759.845,643.12C760.493,644.117 761.918,644.601 764.023,644.824L769.034,645.442L769.079,645.451C770.065,645.651 770.787,646.081 771.28,646.679C771.777,647.28 772.059,648.071 772.059,649.073C772.059,650.203 771.72,651.029 771.165,651.594C770.603,652.166 769.782,652.513 768.658,652.513L736.542,652.513ZM736.542,651.315L768.658,651.315C770.126,651.315 770.86,650.567 770.86,649.073C770.86,647.714 770.188,646.898 768.842,646.627L763.887,646.015C761.317,645.743 759.635,644.996 758.84,643.773C758.045,642.55 757.647,640.512 757.647,637.658L757.647,583.034C757.647,578.007 758.564,573.421 760.4,569.276C762.235,565.132 764.712,561.803 767.832,559.289C770.952,556.775 774.47,555.518 778.385,555.518C782.422,555.518 785.542,556.877 787.744,559.595C789.947,562.312 791.048,567 791.048,573.658L791.048,637.658C791.048,640.512 790.65,642.55 789.855,643.773C789.06,644.996 787.377,645.811 784.808,646.219L782.239,646.627C780.893,646.898 780.22,647.714 780.22,649.073C780.22,650.567 781.076,651.315 782.789,651.315L813.621,651.315C815.089,651.315 815.823,650.567 815.823,649.073C815.823,647.714 815.15,646.898 813.805,646.627L809.767,646.015C807.198,645.608 805.515,644.826 804.72,643.671C803.925,642.516 803.527,640.512 803.527,637.658L803.527,571.416C803.527,563.128 801.876,556.843 798.572,552.563C795.269,548.283 790.742,546.143 784.992,546.143C781.076,546.143 777.345,547.026 773.797,548.792C770.249,550.559 766.15,553.82 761.501,558.576C760.4,559.663 759.482,560.104 758.748,559.901C758.014,559.697 757.647,558.983 757.647,557.76L757.647,503.748C757.647,501.574 756.974,500.486 755.628,500.486C754.649,500.486 753.181,501.166 751.224,502.525C749.633,503.612 747.676,504.699 745.351,505.786C743.026,506.873 740.151,507.824 736.725,508.639C735.38,508.911 734.707,509.726 734.707,511.085C734.707,512.444 735.38,513.259 736.725,513.531L740.579,514.143C742.292,514.414 743.485,514.992 744.158,515.875C744.831,516.758 745.167,518.423 745.167,520.869L745.167,637.658C745.167,640.512 744.77,642.55 743.975,643.773C743.179,644.996 741.497,645.811 738.928,646.219L736.358,646.627C735.013,646.898 734.34,647.714 734.34,649.073C734.34,650.567 735.074,651.315 736.542,651.315ZM843.535,654.348C838.036,654.348 833.524,652.411 829.989,648.558C826.496,644.751 824.718,639.699 824.718,633.378C824.718,627.311 826.428,621.559 829.858,616.127C833.237,610.776 837.863,605.942 843.744,601.634C849.586,597.355 856.234,593.902 863.697,591.277L863.702,591.276C864.765,590.912 865.276,590.126 865.276,588.945L865.276,570.397C865.276,564.189 864.468,559.747 862.721,557.095C861.128,554.678 858.959,553.456 856.198,553.456C853.468,553.456 851.013,554.875 848.775,557.604C846.364,560.542 844.679,565.487 843.621,572.4C842.963,577.075 841.496,580.449 839.326,582.567C837.04,584.798 834.695,585.864 832.34,585.864C830.222,585.864 828.655,585.217 827.595,584.04C826.575,582.907 826.003,581.225 826.003,578.958C826.003,574.832 827.053,570.739 829.167,566.684C831.244,562.699 833.981,559.063 837.38,555.777C840.777,552.493 844.49,549.874 848.517,547.918C852.606,545.931 856.697,544.944 860.786,544.944C865.961,544.944 870.091,546.313 873.196,548.984C877.765,552.914 880.154,559.757 880.154,569.582L880.154,631.951C880.154,634.584 880.419,636.563 881.011,637.88C881.422,638.792 881.988,639.313 882.809,639.313C884.065,639.313 885.107,638.233 886.17,636.355C887.449,634.094 888.033,630.243 888.033,624.818C888.033,623.075 888.518,621.889 889.283,621.192C889.87,620.658 890.64,620.358 891.618,620.358C893.682,620.358 895.019,621.774 895.019,625.022C895.019,635.267 893.342,642.655 890.119,647.217C886.724,652.022 882.848,654.348 878.588,654.348C875.232,654.348 872.564,652.853 870.607,649.825C868.812,647.048 867.586,643.739 866.944,639.894L866.937,639.849L866.933,639.804C866.907,639.518 866.862,639.271 866.786,639.066C866.722,638.893 866.641,638.764 866.478,638.752C866.223,638.733 865.993,638.879 865.748,639.098C865.466,639.35 865.194,639.698 864.915,640.141L864.909,640.15C861.884,644.769 858.787,648.261 855.636,650.641C852.381,653.099 848.352,654.348 843.535,654.348ZM843.535,653.149C848.062,653.149 851.855,651.994 854.913,649.684C857.972,647.374 860.97,643.977 863.906,639.493C864.762,638.134 865.649,637.489 866.567,637.557C867.485,637.625 868.005,638.338 868.127,639.697C868.739,643.366 869.901,646.525 871.614,649.174C873.327,651.824 875.651,653.149 878.588,653.149C882.503,653.149 886.02,650.941 889.14,646.525C892.26,642.109 893.82,634.941 893.82,625.022C893.82,622.712 893.086,621.557 891.618,621.557C890.027,621.557 889.232,622.644 889.232,624.818C889.232,630.525 888.559,634.567 887.213,636.945C885.867,639.323 884.399,640.512 882.809,640.512C880.239,640.512 878.955,637.658 878.955,631.951L878.955,569.582C878.955,553.956 872.899,546.143 860.786,546.143C856.871,546.143 852.956,547.094 849.041,548.996C845.126,550.898 841.516,553.446 838.213,556.639C834.91,559.833 832.248,563.365 830.23,567.238C828.211,571.111 827.202,575.017 827.202,578.958C827.202,582.763 828.914,584.665 832.34,584.665C834.42,584.665 836.469,583.68 838.488,581.709C840.507,579.739 841.822,576.58 842.434,572.232C843.535,565.03 845.34,559.901 847.848,556.843C850.356,553.786 853.139,552.257 856.198,552.257C859.379,552.257 861.887,553.65 863.722,556.436C865.558,559.221 866.475,563.875 866.475,570.397L866.475,588.945C866.475,590.712 865.68,591.867 864.089,592.41C856.749,594.992 850.203,598.389 844.453,602.601C838.702,606.813 834.175,611.535 830.872,616.767C827.569,621.998 825.917,627.535 825.917,633.378C825.917,639.357 827.569,644.147 830.872,647.748C834.175,651.349 838.396,653.149 843.535,653.149ZM848.49,643.773C842.25,643.773 839.131,639.085 839.131,629.709C839.131,622.372 841.18,616.087 845.278,610.856C849.377,605.625 855.158,601.514 862.621,598.525C865.191,597.438 866.475,598.185 866.475,600.767L866.475,615.646C866.475,620.945 865.619,625.701 863.906,629.913C862.193,634.126 859.991,637.489 857.299,640.002C854.608,642.516 851.671,643.773 848.49,643.773ZM848.49,642.574C851.379,642.574 854.036,641.409 856.481,639.126C859.057,636.72 861.156,633.494 862.795,629.462C864.454,625.383 865.276,620.777 865.276,615.646L865.276,600.767C865.276,600.376 865.244,600.039 865.166,599.759C865.109,599.556 865.05,599.388 864.909,599.306C864.778,599.23 864.609,599.23 864.413,599.248C864.033,599.281 863.594,599.415 863.078,599.633L863.067,599.638C855.822,602.54 850.201,606.517 846.222,611.595C842.285,616.62 840.329,622.661 840.329,629.709C840.329,638.165 842.863,642.574 848.49,642.574ZM987.416,654.348C982.759,654.348 978.933,652.54 975.94,648.919C973.055,645.431 971.535,639.721 971.535,631.748L971.535,555.518C971.535,555.067 971.496,554.712 971.293,554.486C971.128,554.303 970.861,554.271 970.532,554.271L965.21,554.271C963.882,554.271 962.904,553.935 962.24,553.382C961.499,552.765 961.075,551.861 961.075,550.627C961.075,549.188 961.747,547.899 963.208,546.813C967.129,543.775 970.282,540.509 972.66,537.01C975.051,533.492 977.132,528.676 978.926,522.566L978.927,522.562C979.512,520.614 980.208,519.268 980.943,518.489C981.639,517.751 982.404,517.428 983.195,517.428C985.125,517.428 986.413,518.77 986.413,521.888L986.413,544.512C986.413,545.099 986.483,545.556 986.747,545.85C986.973,546.101 987.332,546.167 987.783,546.167L999.712,546.167C1001.071,546.167 1002.07,546.559 1002.75,547.219C1003.441,547.89 1003.847,548.876 1003.847,550.219C1003.847,551.562 1003.441,552.547 1002.75,553.219C1002.07,553.879 1001.071,554.271 999.712,554.271L987.783,554.271C987.332,554.271 986.973,554.337 986.747,554.588C986.483,554.882 986.413,555.339 986.413,555.926L986.413,631.951C986.413,634.709 986.779,636.877 987.569,638.444C988.227,639.748 989.484,640.332 991.27,640.332C993.438,640.332 995.17,639.058 996.564,636.65C998.154,633.903 999.147,629.447 999.618,623.299L999.62,623.269L999.624,623.238C999.972,620.532 1001.285,619.339 1003.199,619.339C1004.13,619.339 1004.864,619.63 1005.423,620.147C1006.139,620.81 1006.6,621.937 1006.6,623.616L1006.599,623.637C1006.221,634.422 1004.171,642.179 1000.577,646.941C996.825,651.913 992.419,654.348 987.416,654.348ZM987.416,653.149C992.065,653.149 996.133,650.839 999.62,646.219C1003.107,641.599 1005.034,634.058 1005.401,623.595C1005.401,621.557 1004.667,620.537 1003.199,620.537C1001.853,620.537 1001.058,621.489 1000.813,623.391C1000.324,629.777 999.253,634.397 997.601,637.251C995.95,640.104 993.839,641.531 991.27,641.531C988.945,641.531 987.355,640.682 986.498,638.983C985.642,637.285 985.214,634.941 985.214,631.951L985.214,555.926C985.214,554.024 986.07,553.072 987.783,553.072L999.712,553.072C1001.67,553.072 1002.648,552.121 1002.648,550.219C1002.648,548.317 1001.67,547.365 999.712,547.365L987.783,547.365C986.07,547.365 985.214,546.414 985.214,544.512L985.214,521.888C985.214,519.714 984.541,518.627 983.195,518.627C981.972,518.627 980.932,520.053 980.075,522.907C978.24,529.157 976.099,534.083 973.652,537.684C971.205,541.285 967.963,544.648 963.925,547.773C962.824,548.588 962.274,549.54 962.274,550.627C962.274,552.257 963.252,553.072 965.21,553.072L970.532,553.072C972,553.072 972.734,553.888 972.734,555.518L972.734,631.748C972.734,639.357 974.111,644.826 976.864,648.155C979.616,651.484 983.134,653.149 987.416,653.149ZM1079.544,654.348C1073.863,654.348 1068.724,652.248 1064.141,648.017C1059.671,643.892 1056.095,637.994 1053.451,630.303C1050.844,622.72 1049.532,613.691 1049.532,603.213C1049.532,591.505 1051.122,581.314 1054.284,572.636C1057.483,563.859 1061.858,557.077 1067.378,552.27C1072.996,547.378 1079.256,544.944 1086.151,544.944C1092.095,544.944 1096.735,546.278 1100.098,548.863L1100.1,548.865C1101.587,550.021 1102.396,551.81 1102.398,554.285L1102.765,579.153L1102.765,579.162C1102.765,580.819 1102.305,581.947 1101.588,582.61C1101.029,583.127 1100.296,583.418 1099.364,583.418C1097.473,583.418 1096.143,582.304 1095.624,579.826C1093.929,572.431 1092.297,566.715 1090.723,562.68C1089.221,558.83 1087.695,556.147 1086.077,554.672C1084.605,553.329 1082.983,552.641 1081.196,552.641C1079.023,552.641 1076.832,554.127 1074.497,556.902C1071.951,559.926 1069.852,564.838 1068.135,571.609C1066.38,578.532 1065.511,587.64 1065.511,598.932C1065.511,613.248 1067.135,624.023 1070.448,631.248C1073.561,638.036 1077.5,641.555 1082.48,641.555C1086.383,641.555 1089.627,639.728 1092.248,636.137C1095.058,632.285 1097.441,625.299 1099.479,615.18L1099.485,615.156C1100.023,612.962 1101.235,612.001 1102.851,612.001C1104.898,612.001 1106.203,613.647 1105.691,617.441L1105.69,617.444C1104.324,627.099 1102.418,634.578 1099.996,639.888C1097.488,645.388 1094.495,649.147 1091.086,651.218C1087.659,653.301 1083.812,654.348 1079.544,654.348ZM1079.544,653.149C1083.581,653.149 1087.221,652.164 1090.463,650.194C1093.706,648.223 1096.52,644.622 1098.905,639.391C1101.291,634.16 1103.157,626.788 1104.503,617.276C1104.87,614.559 1104.319,613.2 1102.851,613.2C1101.75,613.2 1101.016,613.947 1100.649,615.442C1098.569,625.769 1096.091,632.903 1093.216,636.843C1090.341,640.784 1086.762,642.754 1082.48,642.754C1077.097,642.754 1072.723,639.085 1069.358,631.748C1065.994,624.41 1064.312,613.472 1064.312,598.932C1064.312,587.518 1065.199,578.312 1066.973,571.315C1068.747,564.317 1070.949,559.255 1073.579,556.13C1076.21,553.005 1078.749,551.442 1081.196,551.442C1083.276,551.442 1085.172,552.223 1086.885,553.786C1088.598,555.348 1090.249,558.168 1091.84,562.244C1093.43,566.321 1095.082,572.096 1096.795,579.569C1097.162,581.336 1098.018,582.219 1099.364,582.219C1100.832,582.219 1101.567,581.2 1101.567,579.162L1101.199,554.295C1101.199,552.257 1100.588,550.763 1099.364,549.811C1096.183,547.365 1091.779,546.143 1086.151,546.143C1079.544,546.143 1073.549,548.486 1068.166,553.174C1062.782,557.862 1058.531,564.486 1055.411,573.047C1052.291,581.608 1050.731,591.663 1050.731,603.213C1050.731,613.54 1052.016,622.44 1054.585,629.913C1057.154,637.387 1060.611,643.128 1064.954,647.136C1069.297,651.145 1074.161,653.149 1079.544,653.149ZM1116.065,652.513C1114.941,652.513 1114.12,652.166 1113.558,651.594C1113.003,651.029 1112.664,650.203 1112.664,649.073C1112.664,648.071 1112.946,647.28 1113.442,646.679C1113.936,646.081 1114.658,645.651 1115.669,645.446L1118.263,645.035C1120.525,644.676 1122.215,644.002 1123.292,642.925C1124.341,641.877 1124.776,640.104 1124.776,637.658L1124.776,520.869C1124.776,518.762 1124.566,517.285 1123.987,516.466C1123.487,515.759 1122.564,515.439 1121.292,515.338L1121.253,515.335L1116.961,514.713L1116.929,514.706C1115.942,514.507 1115.22,514.076 1114.727,513.479C1114.231,512.878 1113.948,512.087 1113.948,511.085C1113.948,510.083 1114.231,509.293 1114.727,508.691C1115.217,508.098 1115.932,507.67 1116.909,507.468C1120.244,506.673 1123.104,505.749 1125.488,504.69C1127.857,503.638 1129.812,502.589 1131.352,501.537C1133.594,499.981 1135.314,499.288 1136.436,499.288C1138.365,499.288 1139.653,500.63 1139.653,503.748L1139.653,637.658C1139.653,640.183 1139.931,641.97 1140.635,642.991C1141.296,643.951 1142.742,644.491 1144.875,644.83L1149.12,645.445L1149.152,645.451C1150.139,645.651 1150.861,646.081 1151.354,646.679C1151.85,647.28 1152.133,648.071 1152.133,649.073C1152.133,650.203 1151.794,651.029 1151.239,651.594C1150.677,652.166 1149.855,652.513 1148.732,652.513L1116.065,652.513ZM1116.065,651.315L1148.732,651.315C1150.2,651.315 1150.934,650.567 1150.934,649.073C1150.934,647.714 1150.261,646.898 1148.915,646.627L1144.694,646.015C1142.125,645.608 1140.443,644.826 1139.647,643.671C1138.852,642.516 1138.454,640.512 1138.454,637.658L1138.454,503.748C1138.454,501.574 1137.781,500.486 1136.436,500.486C1135.457,500.486 1133.989,501.166 1132.031,502.525C1130.441,503.612 1128.422,504.699 1125.975,505.786C1123.528,506.873 1120.592,507.824 1117.166,508.639C1115.82,508.911 1115.147,509.726 1115.147,511.085C1115.147,512.444 1115.82,513.259 1117.166,513.531L1121.387,514.143C1123.1,514.278 1124.293,514.822 1124.966,515.773C1125.638,516.724 1125.975,518.423 1125.975,520.869L1125.975,637.658C1125.975,640.512 1125.363,642.55 1124.14,643.773C1122.916,644.996 1121.02,645.811 1118.451,646.219L1115.881,646.627C1114.535,646.898 1113.862,647.714 1113.862,649.073C1113.862,650.567 1114.597,651.315 1116.065,651.315ZM1187.822,654.348C1184.568,654.348 1181.444,653.556 1178.45,651.966C1175.446,650.37 1172.953,647.843 1170.994,644.361C1169.075,640.951 1168.087,636.411 1168.087,630.729L1168.087,559.799C1168.087,557.692 1167.877,556.215 1167.298,555.396C1166.798,554.689 1165.876,554.369 1164.603,554.268L1164.573,554.265L1161.423,553.854C1158.545,553.478 1157.259,552.083 1157.259,550.015C1157.259,548.974 1157.567,548.153 1158.115,547.529C1158.851,546.689 1160.104,546.167 1161.945,546.167L1179.013,546.167C1180.336,546.167 1181.307,546.593 1181.968,547.328C1182.591,548.02 1182.964,549.039 1182.964,550.423L1182.964,626.448C1182.964,632.337 1183.893,636.549 1185.91,639.045C1187.824,641.414 1190.487,642.574 1193.878,642.574C1197.387,642.574 1200.5,641.475 1203.217,639.275C1206.015,637.009 1208.251,633.961 1209.941,630.141C1211.649,626.281 1212.499,622.06 1212.499,617.48L1212.499,559.799C1212.499,557.692 1212.29,556.215 1211.71,555.396C1211.21,554.689 1210.288,554.369 1209.015,554.268L1208.985,554.265L1205.835,553.854C1202.957,553.478 1201.672,552.083 1201.672,550.015C1201.672,548.974 1201.979,548.153 1202.527,547.529C1203.263,546.689 1204.517,546.167 1206.357,546.167L1223.425,546.167C1224.748,546.167 1225.719,546.593 1226.381,547.328C1227.004,548.02 1227.377,549.039 1227.377,550.423L1227.377,629.506C1227.377,631.587 1227.568,633.021 1228.141,633.773C1228.663,634.459 1229.623,634.837 1230.954,635.048L1234.762,635.652C1236.107,635.775 1237.015,636.251 1237.557,636.922C1237.972,637.436 1238.204,638.084 1238.204,638.881C1238.204,640.582 1237.036,641.934 1234.314,642.501L1234.277,642.509L1234.239,642.514C1230.671,643.025 1227.815,644.027 1225.686,645.561C1223.522,647.12 1221.621,649.005 1219.983,651.213L1219.95,651.259L1219.911,651.302C1218.489,652.881 1217.216,653.533 1216.268,653.533C1215.471,653.533 1214.846,653.267 1214.368,652.796C1213.801,652.236 1213.417,651.287 1213.417,649.888L1213.417,640.512C1213.417,640.295 1213.401,640.103 1213.361,639.939C1213.337,639.842 1213.338,639.747 1213.259,639.723C1213.16,639.693 1213.064,639.739 1212.959,639.799C1212.77,639.908 1212.583,640.077 1212.387,640.295C1207.756,645.438 1203.647,649.042 1200.08,651.127C1196.412,653.271 1192.327,654.348 1187.822,654.348ZM1187.822,653.149C1192.104,653.149 1195.988,652.13 1199.475,650.092C1202.962,648.053 1206.969,644.52 1211.496,639.493C1212.23,638.678 1212.934,638.372 1213.607,638.576C1214.279,638.78 1214.616,639.425 1214.616,640.512L1214.616,649.888C1214.616,651.518 1215.166,652.334 1216.268,652.334C1217.002,652.334 1217.919,651.722 1219.02,650.499C1220.733,648.189 1222.721,646.219 1224.985,644.588C1227.248,642.958 1230.276,641.871 1234.069,641.327C1236.027,640.92 1237.006,640.104 1237.006,638.881C1237.006,637.658 1236.21,636.979 1234.62,636.843L1230.766,636.232C1229.053,635.96 1227.86,635.382 1227.187,634.499C1226.514,633.616 1226.178,631.951 1226.178,629.506L1226.178,550.423C1226.178,548.385 1225.26,547.365 1223.425,547.365L1206.357,547.365C1204.033,547.365 1202.87,548.249 1202.87,550.015C1202.87,551.51 1203.91,552.393 1205.99,552.665L1209.11,553.072C1210.823,553.208 1212.016,553.752 1212.689,554.703C1213.362,555.654 1213.698,557.353 1213.698,559.799L1213.698,617.48C1213.698,622.236 1212.811,626.618 1211.037,630.627C1209.263,634.635 1206.908,637.828 1203.972,640.206C1201.035,642.584 1197.671,643.773 1193.878,643.773C1190.085,643.773 1187.118,642.448 1184.977,639.799C1182.836,637.149 1181.766,632.699 1181.766,626.448L1181.766,550.423C1181.766,548.385 1180.848,547.365 1179.013,547.365L1161.945,547.365C1159.621,547.365 1158.458,548.249 1158.458,550.015C1158.458,551.51 1159.498,552.393 1161.578,552.665L1164.698,553.072C1166.411,553.208 1167.604,553.752 1168.277,554.703C1168.95,555.654 1169.286,557.353 1169.286,559.799L1169.286,630.729C1169.286,636.164 1170.204,640.512 1172.039,643.773C1173.874,647.034 1176.199,649.412 1179.013,650.907C1181.827,652.402 1184.763,653.149 1187.822,653.149ZM1281.234,654.348C1275.969,654.348 1270.89,652.512 1266.012,648.805C1265.003,648.041 1264.06,647.695 1263.142,647.899C1262.156,648.118 1261.263,648.911 1260.375,650.171L1260.35,650.206L1260.323,650.24C1259.018,651.833 1258.031,652.875 1257.378,653.382C1256.525,654.046 1255.66,654.348 1254.807,654.348C1253.853,654.348 1253.166,654.018 1252.698,653.478C1252.133,652.828 1251.849,651.713 1252.158,650.085C1252.641,646.996 1253.001,643.037 1253.243,638.21C1253.487,633.333 1253.608,626.831 1253.608,618.703L1253.608,520.869C1253.608,518.788 1253.417,517.353 1252.844,516.602C1252.321,515.916 1251.362,515.538 1250.031,515.327L1246.152,514.711L1246.128,514.706C1245.142,514.507 1244.42,514.076 1243.926,513.479C1243.43,512.878 1243.147,512.087 1243.147,511.085C1243.147,510.083 1243.43,509.293 1243.926,508.691C1244.416,508.098 1245.131,507.67 1246.108,507.468C1249.433,506.676 1252.225,505.755 1254.483,504.7C1256.739,503.645 1258.64,502.592 1260.185,501.536C1262.427,499.981 1264.146,499.288 1265.268,499.288C1267.198,499.288 1268.486,500.63 1268.486,503.748L1268.486,554.092C1268.486,554.596 1268.581,554.972 1268.95,555.129C1269.098,555.192 1269.248,555.127 1269.416,555.031C1269.684,554.878 1269.957,554.633 1270.246,554.312C1275.773,548.034 1281.838,544.944 1288.392,544.944C1294.329,544.944 1299.594,547.119 1304.176,551.492C1308.643,555.754 1312.181,561.648 1314.76,569.194C1317.306,576.642 1318.587,585.399 1318.587,595.467C1318.587,606.901 1316.967,617.025 1313.742,625.841C1310.485,634.746 1306.055,641.694 1300.479,646.703C1294.8,651.806 1288.382,654.348 1281.234,654.348ZM1281.234,653.149C1288.086,653.149 1294.234,650.703 1299.678,645.811C1305.123,640.92 1309.435,634.126 1312.616,625.429C1315.798,616.733 1317.388,606.746 1317.388,595.467C1317.388,585.548 1316.134,576.92 1313.626,569.582C1311.118,562.244 1307.692,556.503 1303.349,552.359C1299.005,548.215 1294.02,546.143 1288.392,546.143C1282.152,546.143 1276.402,549.132 1271.141,555.111C1270.162,556.198 1269.275,556.571 1268.48,556.232C1267.684,555.892 1267.287,555.179 1267.287,554.092L1267.287,503.748C1267.287,501.574 1266.614,500.486 1265.268,500.486C1264.289,500.486 1262.821,501.166 1260.863,502.525C1259.273,503.612 1257.315,504.699 1254.991,505.786C1252.666,506.873 1249.791,507.824 1246.365,508.639C1245.019,508.911 1244.346,509.726 1244.346,511.085C1244.346,512.444 1245.019,513.259 1246.365,513.531L1250.219,514.143C1251.932,514.414 1253.125,514.992 1253.798,515.875C1254.471,516.758 1254.807,518.423 1254.807,520.869L1254.807,618.703C1254.807,626.856 1254.685,633.378 1254.44,638.27C1254.195,643.162 1253.828,647.17 1253.339,650.295C1252.972,652.198 1253.461,653.149 1254.807,653.149C1255.419,653.149 1256.031,652.911 1256.642,652.436C1257.254,651.96 1258.172,650.975 1259.395,649.48C1261.597,646.355 1264.044,645.811 1266.736,647.85C1271.385,651.382 1276.218,653.149 1281.234,653.149ZM1280.867,648.053C1276.83,648.053 1273.557,646.287 1271.049,642.754C1268.541,639.221 1267.287,634.397 1267.287,628.283L1267.287,576.92C1267.287,570.126 1268.816,564.826 1271.875,561.022C1274.933,557.217 1278.543,555.315 1282.702,555.315C1289.432,555.315 1294.631,558.983 1298.302,566.321C1301.972,573.658 1303.807,584.325 1303.807,598.321C1303.807,613.54 1301.697,625.633 1297.476,634.601C1293.255,643.569 1287.719,648.053 1280.867,648.053ZM1280.867,646.854C1287.31,646.854 1292.422,642.523 1296.391,634.091C1300.552,625.25 1302.608,613.324 1302.608,598.321C1302.608,584.562 1300.838,574.071 1297.229,566.857C1293.801,560.003 1288.988,556.513 1282.702,556.513C1278.894,556.513 1275.609,558.29 1272.809,561.773C1269.897,565.395 1268.486,570.452 1268.486,576.92L1268.486,628.283C1268.486,634.1 1269.64,638.699 1272.026,642.06C1274.287,645.245 1277.228,646.854 1280.867,646.854Z" style="fill:rgb(238,237,231);"/>
        </g>
    </g>
</svg>
